<?xml version="1.0" standalone="no"?>
<!DOCTYPE svg PUBLIC "-//W3C//DTD SVG 20010904//EN"
 "http://www.w3.org/TR/2001/REC-SVG-20010904/DTD/svg10.dtd">
<svg version="1.0" xmlns="http://www.w3.org/2000/svg"
 width="700.000000pt" height="700.000000pt" viewBox="0 0 700.000000 700.000000"
 preserveAspectRatio="xMidYMid meet">
<metadata>
Created by potrace 1.14, written by Peter Selinger 2001-2017
</metadata>
<g transform="translate(0.000000,700.000000) scale(0.100000,-0.100000)"
fill="#000000" stroke="none">
<path d="M2765 6979 c-91 -26 -127 -42 -203 -96 -100 -71 -155 -145 -222 -298
-19 -41 -29 -103 -35 -200 -9 -155 -37 -246 -108 -350 -51 -75 -114 -135 -192
-182 -402 -244 -641 -616 -813 -1268 -34 -126 -86 -356 -106 -470 -3 -16 -8
-40 -10 -53 -5 -20 -52 -274 -63 -332 -2 -14 -11 -59 -19 -100 -8 -41 -17 -86
-20 -100 -3 -14 -7 -32 -9 -40 -2 -8 -7 -29 -10 -47 -11 -65 -65 -292 -91
-378 -14 -50 -30 -103 -34 -120 -4 -16 -20 -64 -35 -105 -157 -431 -376 -693
-697 -832 l-98 -43 0 -252 c0 -234 1 -253 18 -254 22 0 2755 0 2803 0 l35 1
111 228 c142 292 149 307 191 435 32 96 34 111 22 130 -21 34 -94 177 -112
222 -30 73 -60 150 -63 165 -2 8 -15 58 -29 110 -14 52 -27 111 -30 130 -3 19
-8 44 -10 56 -8 38 -18 189 -18 274 -1 134 16 281 47 415 16 71 89 276 126
354 149 319 407 617 718 830 168 115 411 238 586 296 28 10 51 18 53 20 5 4
-51 112 -101 197 -132 223 -281 377 -502 520 -213 137 -303 294 -319 553 -6
108 -10 128 -38 203 -49 132 -164 265 -283 329 -132 70 -302 90 -440 52z m282
-304 c179 -88 214 -332 68 -470 -201 -189 -534 -9 -484 262 37 194 238 294
416 208z"/>
<path d="M5137 4664 c-1 -1 -38 -5 -82 -9 -222 -18 -454 -80 -667 -178 -257
-119 -517 -335 -661 -549 -95 -142 -189 -362 -203 -479 -2 -14 -8 -53 -13 -85
-16 -94 -6 -315 18 -424 42 -188 131 -378 244 -522 28 -35 29 -39 22 -113 -7
-88 -7 -84 -33 -195 -24 -98 -94 -305 -123 -361 -10 -21 -19 -42 -19 -47 0 -5
-24 -61 -54 -123 -30 -63 -53 -115 -52 -116 2 -2 47 6 102 18 54 11 110 23
123 25 90 18 354 92 492 138 185 61 261 91 369 146 l75 38 85 -19 c47 -10 108
-21 135 -25 28 -3 61 -8 75 -10 46 -8 204 -18 295 -18 95 0 272 11 283 18 4 2
34 7 67 11 32 3 62 8 66 11 4 2 23 6 43 10 96 15 297 85 419 146 324 161 573
403 717 693 103 210 140 365 135 580 -3 144 -8 184 -36 295 -87 351 -339 665
-703 880 -228 134 -490 219 -791 256 -56 6 -322 13 -328 8z m364 -452 c468
-84 807 -308 977 -647 186 -372 53 -811 -334 -1103 -114 -86 -338 -189 -479
-221 -81 -18 -95 -21 -199 -35 -203 -27 -477 -7 -701 51 -33 8 -70 17 -82 19
-12 2 -34 9 -47 14 -25 9 -80 -13 -146 -60 -49 -35 -252 -130 -277 -130 -3 0
-2 15 1 33 14 67 20 156 20 284 l-1 132 -36 44 c-149 182 -212 296 -241 440
-85 412 142 810 593 1036 141 71 344 131 499 147 31 4 59 8 61 10 8 7 339 -5
392 -14z"/>
<path d="M5255 3641 c-3 -2 -5 -48 -5 -101 l0 -97 181 -1 c99 0 182 -2 184 -4
4 -4 -49 -79 -263 -371 l-109 -147 1 -73 1 -72 348 -3 348 -2 -3 102 -3 103
-187 -1 c-104 -1 -188 1 -188 3 0 6 96 149 200 298 143 206 146 212 146 297
l-1 73 -323 1 c-177 0 -325 -2 -327 -5z"/>
<path d="M4578 3417 c-3 -6 -4 -41 -4 -76 l1 -64 123 1 c101 1 123 -2 118 -13
-3 -8 -63 -98 -134 -202 -125 -182 -129 -190 -129 -241 l0 -52 251 2 251 3 0
70 0 70 -133 2 c-74 1 -136 3 -137 5 -4 4 30 55 175 263 78 113 83 123 85 177
2 46 0 58 -14 62 -9 2 -113 5 -233 5 -162 0 -217 -3 -220 -12z"/>
<path d="M2049 869 c-25 -15 18 -219 70 -334 62 -136 191 -289 315 -375 73
-49 194 -107 276 -130 101 -29 269 -35 370 -14 197 41 403 171 522 329 12 17
25 32 28 35 13 12 68 110 90 160 36 84 68 217 66 279 l-1 56 -863 0 c-475 0
-868 -3 -873 -6z"/>
</g>
</svg>
